<?xml version="1.0" standalone="no"?>
<!DOCTYPE svg PUBLIC "-//W3C//DTD SVG 20010904//EN"
 "http://www.w3.org/TR/2001/REC-SVG-20010904/DTD/svg10.dtd">
<svg version="1.0" xmlns="http://www.w3.org/2000/svg"
 width="1024.000000pt" height="1024.000000pt" viewBox="0 0 1024.000000 1024.000000"
 preserveAspectRatio="xMidYMid meet">

<g transform="translate(0.000000,1024.000000) scale(0.100000,-0.100000)"
fill="#000000" stroke="none">
<path d="M2148 10233 c26 -10 10 -21 -23 -16 -30 5 -34 3 -29 -11 5 -12 17
-17 38 -16 50 3 56 1 56 -18 0 -11 -7 -18 -19 -18 -11 0 -17 4 -15 8 3 4 -7 8
-23 8 -24 -1 -25 -2 -10 -11 26 -15 21 -26 -13 -26 -31 0 -40 11 -17 20 7 3 4
6 -7 6 -15 1 -17 -4 -12 -30 5 -29 5 -29 -12 -13 -15 16 -17 16 -20 2 -2 -9
-14 -19 -28 -22 -32 -8 -21 -26 17 -26 16 0 29 -4 29 -10 0 -20 -51 -15 -63 6
-4 8 -13 14 -18 14 -14 0 -39 -26 -39 -39 0 -14 17 -14 25 -1 5 8 11 7 21 -1
17 -14 19 -33 3 -23 -6 3 -15 0 -20 -7 -7 -11 -12 -12 -26 -1 -10 6 -25 15
-33 18 -36 14 -66 30 -79 42 -7 7 -16 10 -20 7 -8 -9 37 -42 77 -57 17 -7 32
-14 32 -18 0 -9 -55 -6 -61 4 -4 5 -17 0 -28 -11 -18 -17 -19 -21 -7 -26 8 -3
17 -1 19 6 2 7 12 2 25 -13 14 -16 25 -21 29 -15 17 22 65 46 82 40 10 -3 24
1 31 10 14 17 45 21 35 5 -10 -17 -83 -60 -100 -60 -9 0 -26 -5 -38 -11 l-21
-12 23 -8 c23 -9 77 11 94 35 5 6 5 0 2 -12 -6 -21 -5 -23 13 -13 34 18 34 12
0 -18 -43 -37 -85 -45 -111 -20 -25 23 -63 25 -71 3 -5 -12 -14 -15 -35 -11
-17 4 -36 0 -47 -8 -18 -13 -17 -14 13 -15 25 0 31 -4 27 -15 -4 -9 0 -15 9
-15 8 0 17 5 19 12 5 13 28 2 28 -13 0 -6 -5 -7 -10 -4 -6 4 -19 -4 -29 -16
-10 -12 -27 -23 -37 -24 -10 -2 -28 -6 -39 -10 -11 -4 -5 3 13 15 31 21 42 40
23 40 -5 0 -22 -10 -38 -23 -35 -29 -64 -41 -57 -24 2 7 22 23 44 37 46 29 45
41 -3 16 -37 -21 -96 -96 -75 -96 8 0 19 5 26 12 12 12 92 21 92 11 0 -14 -36
-31 -47 -22 -7 7 -16 4 -25 -9 -7 -10 -25 -22 -40 -26 -24 -5 -26 -9 -18 -31
8 -21 7 -25 -8 -25 -10 0 -24 6 -30 12 -10 10 -14 8 -18 -10 -6 -22 -24 -31
-24 -12 0 6 -4 10 -9 10 -5 0 -7 -9 -4 -20 4 -13 0 -20 -9 -20 -25 0 -77 -45
-68 -59 6 -11 9 -11 16 1 10 15 77 38 113 38 12 0 19 -4 16 -10 -3 -5 -22 -10
-41 -10 -19 0 -34 -4 -34 -9 0 -8 56 -25 72 -22 4 0 4 -7 1 -16 -4 -11 -8 -13
-11 -5 -6 18 -24 15 -76 -13 -26 -14 -54 -25 -62 -25 -17 0 -19 -17 -3 -22 7
-2 -18 -19 -56 -38 -76 -40 -87 -50 -51 -50 18 0 26 -5 25 -17 0 -11 -3 -13
-6 -5 -7 17 -33 15 -33 -4 0 -11 -6 -14 -20 -9 -15 5 -20 2 -20 -12 0 -14 -2
-15 -9 -4 -13 20 -2 41 16 34 11 -4 14 -2 11 8 -3 8 -11 15 -19 15 -8 1 -20 2
-27 3 -7 0 -10 6 -7 11 3 6 3 10 -2 10 -12 0 -39 -20 -28 -20 6 0 3 -5 -5 -11
-11 -7 -6 -8 20 -3 31 6 33 5 21 -10 -7 -9 -18 -16 -24 -16 -5 0 -24 -10 -41
-23 -17 -12 -44 -29 -61 -37 l-30 -14 39 -5 c41 -6 63 -31 27 -31 -21 0 -131
48 -131 57 0 3 12 3 27 0 27 -5 62 9 76 31 4 6 19 12 32 12 13 0 26 4 29 9 8
13 -4 41 -17 41 -6 0 -7 -3 -4 -6 10 -10 -81 -64 -97 -58 -16 6 -106 -51 -106
-66 0 -6 -9 -10 -19 -10 -29 0 -35 -17 -9 -24 16 -4 31 2 50 20 25 25 29 25
57 13 35 -15 39 -24 15 -33 -26 -10 -34 -7 -27 12 7 16 6 16 -11 0 -9 -10 -24
-18 -32 -18 -8 0 -13 -4 -9 -10 3 -5 13 -6 21 -3 9 3 20 0 25 -8 6 -9 11 -11
17 -3 4 5 21 16 39 23 28 12 34 11 50 -4 16 -17 16 -17 -6 -10 -23 7 -68 -9
-83 -30 -5 -6 -11 -5 -17 4 -8 12 -14 12 -33 4 l-23 -12 28 0 c15 -1 27 -5 27
-11 0 -5 13 -7 30 -3 26 5 29 3 24 -11 -5 -13 -14 -16 -30 -12 -14 4 -24 2
-24 -4 0 -6 -5 -8 -11 -4 -8 5 -8 9 1 14 7 4 -6 10 -29 14 -45 7 -49 12 -23
32 11 9 13 13 4 14 -16 0 -42 -24 -42 -40 0 -15 -42 -8 -48 8 -2 7 6 12 22 12
16 0 26 6 26 14 0 8 6 17 13 20 6 3 -4 3 -23 -1 -19 -3 -43 -6 -53 -5 -9 0
-17 -4 -17 -9 0 -6 5 -7 10 -4 6 3 10 -1 10 -9 0 -10 -6 -13 -15 -10 -9 4 -15
0 -15 -9 0 -8 9 -17 20 -20 28 -7 16 -33 -22 -46 -32 -11 -30 -31 5 -31 16 0
18 -3 9 -12 -9 -9 -19 -10 -41 -1 -29 10 -29 10 -19 -13 13 -28 62 -34 72 -9
3 9 18 15 38 15 25 0 29 3 18 10 -13 9 -13 11 0 20 8 5 24 10 35 10 20 -1 20
-1 1 -15 -11 -8 -14 -15 -8 -15 7 0 12 -5 12 -11 0 -5 -4 -8 -9 -5 -5 3 -22
-1 -37 -9 -16 -8 -35 -15 -42 -15 -8 0 -12 -6 -9 -12 4 -14 21 -15 50 -3 10 4
17 3 17 -4 0 -6 -10 -11 -22 -12 -13 0 -17 -3 -10 -6 9 -3 4 -10 -13 -19 -32
-16 -45 -18 -45 -4 0 5 7 7 15 4 8 -4 15 -1 15 5 0 13 -45 26 -59 17 -6 -4 -8
-13 -5 -20 3 -9 -3 -17 -15 -21 -21 -6 -29 -25 -11 -25 6 0 10 -5 10 -10 0 -7
-6 -7 -19 0 -25 13 -61 13 -61 0 0 -5 8 -10 18 -11 12 -1 10 -3 -6 -7 -13 -4
-22 -11 -21 -17 4 -24 12 -35 25 -35 19 0 18 -16 -2 -24 -8 -3 -12 -2 -9 3 13
22 -19 21 -48 -2 -36 -27 -97 -45 -97 -28 0 6 12 11 26 11 17 0 28 6 31 19 3
11 12 22 20 25 11 5 12 10 5 19 -14 16 -5 29 31 44 19 9 27 20 27 37 0 25 16
36 55 36 24 0 40 24 29 42 -4 7 -10 4 -16 -6 -5 -9 -16 -16 -24 -16 -9 0 -22
-6 -30 -14 -7 -8 -23 -12 -34 -9 -20 5 -28 23 -10 23 6 0 10 7 10 16 0 12 -8
8 -30 -12 -31 -30 -25 -44 16 -36 32 6 30 -8 -4 -40 -24 -24 -33 -26 -89 -22
-52 4 -63 2 -63 -11 0 -9 -6 -15 -12 -14 -27 3 -36 -2 -41 -22 -5 -17 -11 -20
-35 -14 -18 3 -33 2 -37 -4 -4 -7 7 -11 29 -11 45 0 57 -18 17 -26 -17 -4 -31
-10 -31 -14 0 -11 -90 -43 -98 -36 -3 4 0 11 8 16 12 7 12 12 2 22 -9 9 -12 9
-12 -5 0 -9 -6 -17 -14 -17 -7 0 -19 -7 -26 -15 -11 -13 -9 -15 16 -14 16 1
37 -2 46 -6 11 -4 18 -3 18 4 0 6 10 11 23 11 22 0 22 0 -3 -20 -22 -17 -23
-20 -6 -20 10 0 25 8 32 18 12 16 14 16 42 0 27 -16 30 -16 45 0 10 9 17 11
17 5 0 -7 -5 -15 -11 -18 -6 -4 -8 -13 -6 -19 8 -21 -49 -48 -85 -41 l-32 7
25 13 c17 10 28 10 37 3 16 -14 26 -4 18 17 -9 24 -37 31 -51 12 -6 -9 -30
-17 -54 -20 -54 -5 -81 -37 -31 -37 18 0 29 4 25 10 -3 6 6 4 22 -2 l28 -13
-38 -3 c-47 -4 -49 -22 -1 -22 21 0 33 -4 29 -10 -8 -13 -52 -13 -60 1 -4 6
-13 8 -20 5 -7 -2 -21 4 -30 14 -14 16 -15 23 -6 34 7 8 10 20 6 26 -10 17
-23 11 -27 -12 -2 -17 -13 -25 -45 -33 -53 -13 -75 -32 -53 -45 8 -5 22 -10
30 -10 11 1 10 4 -4 15 -19 14 -18 15 16 15 20 0 40 5 43 10 10 17 25 11 25
-9 0 -11 5 -23 10 -26 6 -4 8 -10 5 -15 -3 -4 6 -11 20 -14 16 -4 25 -13 25
-26 0 -12 7 -20 18 -21 9 -1 -1 -5 -23 -10 -22 -5 -43 -16 -48 -24 -8 -15 -57
-21 -57 -7 0 4 19 15 42 23 50 18 57 42 14 47 -22 3 -27 0 -23 -11 5 -13 1
-14 -26 -5 -18 5 -39 12 -48 15 -17 5 -73 -40 -63 -50 3 -3 -3 -3 -14 0 -17 4
-32 -7 -38 -27 -12 -40 -19 -50 -35 -50 -12 0 -19 -7 -19 -20 0 -11 5 -20 12
-20 9 0 9 -3 0 -12 -26 -26 -13 -38 38 -38 28 0 50 -4 50 -10 0 -5 -21 -9 -47
-7 l-48 2 -3 -37 c-3 -36 -2 -38 28 -38 20 0 29 -4 24 -11 -3 -6 -17 -9 -30
-6 -22 4 -24 1 -24 -39 0 -24 5 -45 12 -48 10 -5 10 -7 1 -12 -9 -4 -13 -32
-13 -89 0 -84 0 -84 28 -88 l27 -4 -27 -2 -28 -1 0 -3960 0 -3960 5120 0 5120
0 0 5120 0 5120 -4000 0 c-3657 0 -4000 -2 -4000 -16 0 -12 7 -15 25 -12 35 7
42 -10 10 -22 -20 -8 -29 -6 -45 10 -11 11 -20 25 -20 30 0 6 -17 10 -37 9
-21 0 -32 -3 -25 -6z m232 -63 c-36 -11 -52 -11 -45 0 3 6 21 10 38 9 31 -1
31 -1 7 -9z m-66 -7 c-5 -5 -12 -12 -16 -18 -4 -6 -8 -2 -8 8 0 9 7 17 17 17
9 0 12 -3 7 -7z m-64 -7 c0 -9 -30 -14 -35 -6 -4 6 3 10 14 10 12 0 21 -2 21
-4z m-60 -26 c0 -5 -7 -10 -15 -10 -8 0 -15 -6 -15 -14 0 -16 -34 -31 -49 -21
-5 3 -12 1 -16 -5 -3 -5 -11 -10 -17 -10 -6 0 -3 9 7 20 11 12 25 18 36 15 12
-4 23 1 31 14 13 22 38 29 38 11z m53 -31 c-9 -9 -12 -7 -10 9 1 14 5 18 11
12 7 -7 6 -14 -1 -21z m-33 -9 c0 -5 -4 -10 -9 -10 -6 0 -13 5 -16 10 -3 6 1
10 9 10 9 0 16 -4 16 -10z m150 -20 c0 -5 -7 -10 -16 -10 -8 0 -12 5 -9 10 3
6 10 10 16 10 5 0 9 -4 9 -10z m-207 -25 c1 -6 -11 -12 -28 -13 -16 -2 -36 -9
-43 -14 -7 -6 -15 -8 -18 -5 -9 8 24 40 34 33 4 -2 14 -1 22 4 17 11 31 9 33
-5z m-68 -65 c-3 -5 -11 -10 -16 -10 -6 0 -7 5 -4 10 3 6 11 10 16 10 6 0 7
-4 4 -10z m95 -6 c0 -2 -9 -4 -21 -4 -11 0 -18 4 -14 10 5 8 35 3 35 -6z m-50
-94 c8 -5 11 -10 5 -10 -5 0 -17 5 -25 10 -8 5 -10 10 -5 10 6 0 17 -5 25 -10z
m-232 -18 c2 -8 -8 -12 -30 -12 -31 1 -32 1 -13 15 21 17 37 15 43 -3z m14
-46 c-32 -27 -72 -49 -78 -44 -2 2 16 17 41 32 24 16 42 32 39 37 -3 5 2 6 10
3 12 -5 10 -10 -12 -28z m193 22 c-11 -6 -22 -14 -25 -17 -11 -14 -111 -73
-116 -69 -6 7 128 96 146 97 10 0 8 -3 -5 -11z m255 2 c-8 -5 -22 -9 -30 -9
-10 0 -8 3 5 9 27 12 43 12 25 0z m-233 -47 c-9 -9 -20 -13 -24 -9 -4 4 -1 11
7 16 25 16 35 11 17 -7z m-247 -37 c0 -9 -40 -13 -46 -5 -3 5 6 9 20 9 14 0
26 -2 26 -4z m207 -2 c-3 -3 -12 -4 -19 -1 -8 3 -5 6 6 6 11 1 17 -2 13 -5z
m-292 -43 c-11 -10 -36 -22 -55 -25 -19 -3 -28 -3 -20 1 8 3 20 12 25 19 6 7
21 15 35 17 14 2 27 5 30 6 2 0 -4 -8 -15 -18z m140 9 c-3 -5 -13 -10 -21 -10
-8 0 -14 5 -14 10 0 6 9 10 21 10 11 0 17 -4 14 -10z m-255 -45 c-7 -8 -17
-12 -23 -8 -6 4 -3 9 9 14 27 11 28 11 14 -6z m212 3 c-9 -9 -15 -9 -24 0 -9
9 -7 12 12 12 19 0 21 -3 12 -12z m68 -12 c0 -11 -19 -15 -25 -6 -3 5 1 10 9
10 9 0 16 -2 16 -4z m-116 -21 c-7 -16 -24 -21 -24 -6 0 8 7 13 27 20 1 1 0
-6 -3 -14z m-241 -45 c-7 -8 -22 24 -16 34 4 5 10 1 13 -10 4 -10 6 -21 3 -24z
m120 30 c7 -1 -1 -8 -16 -16 -16 -8 -25 -20 -21 -26 4 -7 3 -8 -4 -4 -13 8
-16 39 -5 50 4 3 13 4 21 1 7 -3 19 -5 25 -5z m67 -24 c0 -2 -7 -6 -15 -10 -8
-3 -15 -1 -15 4 0 6 7 10 15 10 8 0 15 -2 15 -4z m97 -12 c-3 -3 -12 -4 -19
-1 -8 3 -5 6 6 6 11 1 17 -2 13 -5z m-227 -24 c0 -5 -4 -10 -10 -10 -5 0 -10
5 -10 10 0 6 5 10 10 10 6 0 10 -4 10 -10z m10 -54 c0 -2 -16 -13 -35 -25 -38
-22 -45 -18 -18 11 14 15 53 26 53 14z m40 -26 c0 -5 -7 -10 -15 -10 -8 0 -15
5 -15 10 0 6 7 10 15 10 8 0 15 -4 15 -10z m-90 -69 c0 -13 -29 -35 -37 -27
-3 3 -1 6 5 6 7 0 12 7 12 15 0 8 5 15 10 15 6 0 10 -4 10 -9z m-30 -85 c0 -3
-4 -8 -10 -11 -5 -3 -10 -1 -10 4 0 6 5 11 10 11 6 0 10 -2 10 -4z m-100 -10
c0 -3 -4 -8 -10 -11 -5 -3 -10 -1 -10 4 0 6 5 11 10 11 6 0 10 -2 10 -4z m70
-16 c0 -5 -4 -10 -10 -10 -5 0 -10 5 -10 10 0 6 5 10 10 10 6 0 10 -4 10 -10z
m-305 -10 c-3 -5 -11 -10 -16 -10 -6 0 -7 5 -4 10 3 6 11 10 16 10 6 0 7 -4 4
-10z m135 -10 c0 -5 -4 -10 -10 -10 -5 0 -10 5 -10 10 0 6 5 10 10 10 6 0 10
-4 10 -10z m133 -15 c-3 -9 -8 -14 -10 -11 -3 3 -2 9 2 15 9 16 15 13 8 -4z
m-266 -11 c-3 -3 -12 -4 -19 -1 -8 3 -5 6 6 6 11 1 17 -2 13 -5z m43 -18 c0
-2 -7 -9 -15 -16 -13 -11 -14 -10 -9 4 5 14 24 23 24 12z m75 -17 c-3 -4 -12
-6 -20 -3 -8 4 -13 10 -10 15 3 4 12 6 20 3 8 -4 13 -10 10 -15z m-160 1 c3
-5 1 -10 -4 -10 -6 0 -11 5 -11 10 0 6 2 10 4 10 3 0 8 -4 11 -10z m225 -10
c0 -5 -5 -10 -11 -10 -5 0 -7 5 -4 10 3 6 8 10 11 10 2 0 4 -4 4 -10z m-180
-10 c0 -6 -8 -14 -17 -17 -10 -4 -34 -22 -53 -40 -19 -18 -42 -33 -50 -32 -9
0 -4 8 14 22 16 12 41 34 55 49 27 27 51 36 51 18z m20 -39 c0 -11 -31 -24
-39 -16 -3 3 1 10 9 15 19 12 30 12 30 1z m-150 -11 c0 -5 -5 -10 -11 -10 -5
0 -7 5 -4 10 3 6 8 10 11 10 2 0 4 -4 4 -10z m82 -27 c-6 -2 -10 -9 -6 -14 3
-5 0 -9 -5 -9 -12 0 -14 13 -4 23 3 4 11 7 17 6 6 0 5 -3 -2 -6z m-206 -42
c20 -22 25 -24 33 -11 6 8 12 12 15 9 3 -3 -5 -15 -19 -27 -20 -17 -25 -19
-25 -6 0 8 -12 26 -26 39 -31 29 -35 30 -28 10 4 -10 0 -15 -14 -15 -11 0 -30
-12 -41 -26 -18 -23 -21 -24 -21 -7 0 37 50 77 84 66 10 -3 29 -17 42 -32z
m364 -1 c-20 -13 -43 -13 -35 0 3 6 16 10 28 10 18 0 19 -2 7 -10z m-215 -10
c-3 -5 -11 -10 -16 -10 -6 0 -22 -11 -37 -25 -57 -52 -92 -77 -92 -63 1 19 25
48 41 48 8 0 20 9 27 20 7 11 19 20 27 20 8 0 15 5 15 10 0 6 9 10 21 10 11 0
17 -4 14 -10z m52 -32 c-3 -8 -6 -5 -6 6 -1 11 2 17 5 13 3 -3 4 -12 1 -19z
m98 12 c3 -5 1 -10 -4 -10 -6 0 -11 5 -11 10 0 6 2 10 4 10 3 0 8 -4 11 -10z
m-140 -20 c-3 -5 -14 -10 -23 -9 -14 0 -13 2 3 9 27 11 27 11 20 0z m155 -24
c0 -3 -4 -8 -10 -11 -5 -3 -10 -1 -10 4 0 6 5 11 10 11 6 0 10 -2 10 -4z
m-134 -41 c-16 -14 -39 -24 -50 -24 -20 1 -20 2 -1 6 11 3 22 9 25 13 5 7 42
29 50 30 3 0 -8 -11 -24 -25z m-189 -27 c-5 -3 -16 -4 -24 -1 -10 4 -11 9 -2
19 8 10 14 11 24 1 8 -8 9 -14 2 -19z m350 16 c-3 -3 -12 -4 -19 -1 -8 3 -5 6
6 6 11 1 17 -2 13 -5z m-387 -43 c0 -12 -39 -25 -48 -16 -7 7 17 25 36 25 6 0
12 -4 12 -9z m160 -1 c0 -5 -10 -10 -22 -10 -19 0 -20 2 -8 10 19 13 30 13 30
0z m-275 -40 c-10 -11 -25 -20 -34 -19 -11 0 -9 4 7 11 12 6 22 15 22 20 0 4
5 8 12 8 6 0 3 -9 -7 -20z m75 6 c0 -5 -75 -56 -83 -56 -3 0 -4 7 -1 15 4 8
12 15 19 15 7 0 15 7 19 15 4 13 46 23 46 11z m133 -3 c-7 -2 -19 -2 -25 0 -7
3 -2 5 12 5 14 0 19 -2 13 -5z m-439 -19 c10 -25 7 -34 -9 -34 -8 0 -15 -6
-15 -14 0 -8 -17 -18 -37 -24 -33 -8 -35 -10 -18 -17 11 -5 23 -13 27 -19 13
-19 9 -46 -7 -46 -8 0 -15 5 -15 10 0 6 5 10 10 10 6 0 10 5 10 10 0 6 -13 10
-28 10 -27 0 -52 15 -52 32 0 4 7 8 16 8 13 0 13 2 -2 18 -17 16 -17 17 2 21
10 2 31 12 46 22 19 14 28 16 31 7 3 -9 7 -7 12 5 9 21 21 22 29 1z m176 -14
c0 -5 -4 -10 -10 -10 -5 0 -10 5 -10 10 0 6 5 10 10 10 6 0 10 -4 10 -10z
m-160 -40 c0 -5 -5 -10 -11 -10 -5 0 -7 5 -4 10 3 6 8 10 11 10 2 0 4 -4 4
-10z m170 -5 c11 -13 8 -15 -13 -15 -19 0 -25 4 -21 15 4 8 10 15 14 15 4 0
13 -7 20 -15z m165 -5 c19 -8 19 -9 -2 -9 -12 -1 -25 4 -28 9 -7 12 2 12 30 0z
m-280 -46 c-11 -8 -28 -21 -39 -30 -13 -11 -21 -13 -29 -5 -8 8 -6 11 6 11 9
0 17 5 17 10 0 6 6 10 14 10 7 0 19 7 26 15 7 9 16 13 19 9 3 -3 -3 -12 -14
-20z m135 6 c-24 -15 -37 -11 -16 5 11 8 22 12 25 9 3 -3 -1 -9 -9 -14z m-350
-15 c-13 -16 -70 -21 -70 -6 0 12 19 19 54 20 24 1 27 -1 16 -14z m220 -35 c0
-5 -2 -10 -4 -10 -3 0 -8 5 -11 10 -3 6 -1 10 4 10 6 0 11 -4 11 -10z m-150
-30 c0 -5 -4 -10 -10 -10 -5 0 -10 5 -10 10 0 6 5 10 10 10 6 0 10 -4 10 -10z
m174 -29 c3 -5 -3 -11 -15 -14 -16 -4 -18 -3 -8 9 13 16 16 17 23 5z m-64 -56
c-7 -9 -15 -13 -17 -11 -7 7 7 26 19 26 6 0 6 -6 -2 -15z m-123 -1 c-3 -3 -12
-4 -19 -1 -8 3 -5 6 6 6 11 1 17 -2 13 -5z m-191 -29 c16 -8 38 -15 48 -15 11
0 17 -3 13 -6 -9 -10 -108 17 -101 27 7 12 7 12 40 -6z m399 5 c3 -5 1 -10 -4
-10 -6 0 -11 5 -11 10 0 6 2 10 4 10 3 0 8 -4 11 -10z m-558 -88 c8 -5 -3 -17
-33 -36 -24 -15 -44 -32 -44 -37 0 -5 -10 -9 -21 -9 -17 0 -19 3 -10 13 6 8 8
17 4 21 -4 4 0 4 9 1 9 -4 19 -1 23 5 4 6 18 15 32 21 13 5 21 13 18 19 -7 12
5 13 22 2z m272 -8 c2 -2 -17 -3 -42 -2 -25 1 -43 6 -40 10 4 8 72 1 82 -8z
m139 -24 c14 0 23 -3 19 -6 -3 -4 -23 -3 -43 1 -28 5 -34 9 -23 15 8 6 15 6
17 0 2 -6 15 -10 30 -10z m-263 -10 c-3 -5 -10 -10 -16 -10 -5 0 -9 5 -9 10 0
6 7 10 16 10 8 0 12 -4 9 -10z m-95 -10 c13 -8 12 -10 -3 -10 -16 0 -16 -2 -3
-28 13 -25 13 -28 -2 -28 -10 -1 -25 -4 -34 -9 -13 -5 -18 -3 -18 9 0 10 -9
16 -25 16 -14 0 -25 5 -25 10 0 6 9 10 21 10 11 0 17 5 14 10 -16 26 41 42 75
20z m210 -20 c0 -5 -2 -10 -4 -10 -3 0 -8 5 -11 10 -3 6 -1 10 4 10 6 0 11 -4
11 -10z m-115 -20 c3 -5 1 -10 -4 -10 -6 0 -11 5 -11 10 0 6 2 10 4 10 3 0 8
-4 11 -10z m-205 -40 c0 -5 -7 -10 -15 -10 -8 0 -15 5 -15 10 0 6 7 10 15 10
8 0 15 -4 15 -10z m525 0 c-3 -5 -11 -10 -16 -10 -6 0 -7 5 -4 10 3 6 11 10
16 10 6 0 7 -4 4 -10z m-330 -20 c3 -5 -3 -10 -15 -10 -12 0 -18 5 -15 10 3 6
10 10 15 10 5 0 12 -4 15 -10z m-82 -7 c-7 -2 -19 -2 -25 0 -7 3 -2 5 12 5 14
0 19 -2 13 -5z m122 -3 c3 -5 2 -10 -4 -10 -5 0 -13 5 -16 10 -3 6 -2 10 4 10
5 0 13 -4 16 -10z m-80 -30 c-3 -5 -13 -10 -21 -10 -8 0 -14 5 -14 10 0 6 9
10 21 10 11 0 17 -4 14 -10z m85 -16 c0 -2 -9 -4 -20 -4 -11 0 -20 4 -20 9 0
5 9 7 20 4 11 -3 20 -7 20 -9z m-313 -10 c-3 -3 -12 -4 -19 -1 -8 3 -5 6 6 6
11 1 17 -2 13 -5z m60 -11 c-9 -9 -20 -13 -24 -9 -4 4 -1 11 7 16 25 16 35 11
17 -7z m203 -103 c-8 -6 -22 -10 -30 -9 -9 0 -5 6 10 14 27 14 44 10 20 -5z
m-77 3 c-7 -2 -21 -2 -30 0 -10 3 -4 5 12 5 17 0 24 -2 18 -5z m-153 -73 c0
-5 -2 -10 -4 -10 -3 0 -8 5 -11 10 -3 6 -1 10 4 10 6 0 11 -4 11 -10z m-43 -6
c-3 -3 -12 -4 -19 -1 -8 3 -5 6 6 6 11 1 17 -2 13 -5z m200 0 c-3 -3 -12 -4
-19 -1 -8 3 -5 6 6 6 11 1 17 -2 13 -5z m4613 -1880 l0 -226 39 35 c101 91
278 103 367 25 70 -62 69 -54 69 -443 l0 -350 -52 -3 -53 -3 -1 313 c0 215 -4
324 -12 347 -19 54 -57 76 -130 75 -107 0 -182 -56 -212 -156 -12 -41 -15
-108 -15 -310 0 -239 -1 -258 -17 -259 -10 -1 -36 -2 -58 -3 l-40 -1 -3 593
-2 592 60 0 60 0 0 -226z m3223 216 c9 0 10 -1058 1 -1124 l-7 -46 -53 0 -54
0 0 44 0 43 -35 -32 c-64 -61 -118 -80 -225 -80 -117 1 -167 22 -238 100 -69
76 -94 144 -100 281 -7 171 27 291 106 372 127 130 348 148 465 37 l27 -26 0
214 c0 117 2 216 6 219 3 3 26 4 52 2 26 -2 50 -3 55 -4z m334 0 c41 -15 58
-51 58 -124 -1 -110 -76 -235 -174 -289 -65 -36 -68 -19 -12 56 46 60 101 172
101 204 0 18 -7 22 -37 25 l-38 3 -3 62 c-2 52 0 62 15 66 32 8 59 7 90 -3z
m-4065 -265 c48 -132 127 -346 174 -475 47 -129 101 -277 120 -328 19 -51 32
-98 29 -103 -9 -14 -112 -11 -122 3 -4 7 -31 78 -59 158 l-52 145 -226 3 -225
2 -14 -27 c-8 -16 -36 -85 -61 -154 l-48 -127 -45 -6 c-65 -9 -103 -8 -103 3
0 5 56 152 125 326 69 174 164 416 210 538 46 122 90 237 97 255 12 32 14 33
62 30 l50 -3 88 -240z m-767 67 c9 -29 14 -56 11 -59 -3 -4 -95 -43 -203 -87
l-197 -81 -13 -45 c-15 -52 -168 -731 -209 -928 -15 -73 -33 -141 -40 -150
-13 -18 12 -17 -1094 -42 -371 -9 -523 -9 -543 -1 -15 6 -32 23 -37 37 -9 22
-69 401 -107 669 -8 58 -9 60 -40 63 -29 3 -32 7 -38 45 -3 23 -8 54 -11 69
l-5 26 93 6 c51 3 266 13 478 21 1154 45 1374 55 1381 63 3 4 16 58 29 121 16
75 31 122 44 138 23 25 466 206 477 195 4 -4 14 -31 24 -60z m2303 -162 c23
-13 49 -34 57 -47 l15 -23 50 36 c119 85 287 87 370 4 57 -57 60 -80 60 -454
l0 -337 -52 3 -53 3 -5 336 c-4 271 -8 339 -19 353 -59 71 -225 56 -284 -25
-31 -43 -36 -98 -37 -386 l0 -272 -34 -6 c-76 -15 -70 -37 -76 325 -4 281 -7
329 -22 356 -22 41 -65 58 -132 52 -69 -6 -127 -43 -158 -101 -22 -40 -23 -54
-28 -337 l-5 -295 -55 0 -55 0 -3 418 -2 417 50 0 50 0 0 -46 0 -46 42 37 c57
48 115 66 208 62 57 -3 86 -9 118 -27z m1204 -3 c33 -16 76 -49 102 -78 64
-71 88 -140 94 -271 l5 -108 -319 -2 -319 -3 3 -30 c6 -55 32 -120 63 -158 44
-54 100 -79 187 -85 96 -6 147 13 206 79 l44 49 36 -40 c20 -22 36 -44 36 -49
0 -21 -105 -101 -158 -121 -48 -18 -73 -21 -162 -18 -90 3 -113 7 -162 31
-113 56 -185 158 -208 300 -24 140 10 307 80 395 46 59 84 87 159 119 49 21
69 23 156 21 86 -3 109 -7 157 -31z m1838 23 c95 -26 175 -112 187 -200 l6
-40 -47 0 c-25 0 -49 -1 -52 -2 -4 -2 -13 15 -21 37 -30 87 -92 120 -214 114
-105 -6 -149 -42 -149 -125 0 -86 53 -122 230 -153 192 -34 250 -81 258 -208
8 -114 -48 -208 -151 -254 -45 -21 -68 -24 -162 -24 -98 0 -116 3 -166 26 -94
44 -153 119 -161 204 -3 29 -2 30 45 33 l48 3 19 -44 c25 -56 77 -103 132
-118 65 -17 181 -8 215 17 48 36 73 82 73 135 0 40 -4 51 -30 72 -35 30 -36
30 -167 57 -56 11 -121 29 -146 39 -57 25 -116 77 -133 118 -22 52 -18 143 9
194 24 47 95 102 151 118 42 13 183 13 226 1z m-3880 -1212 l0 -212 33 31
c108 106 353 124 458 36 66 -56 69 -70 69 -445 l0 -338 -22 -5 c-13 -2 -39 -4
-58 -2 l-35 2 -2 324 c-2 349 -2 350 -58 387 -14 9 -54 19 -89 21 -120 10
-222 -46 -264 -146 -19 -43 -22 -76 -28 -320 l-7 -271 -54 0 -53 0 0 575 0
575 55 0 55 0 0 -212z m-498 123 c64 -20 120 -70 156 -140 17 -35 32 -79 32
-98 0 -32 -1 -33 -45 -34 -25 -1 -50 -2 -57 -3 -7 -1 -15 13 -18 29 -13 61
-38 93 -96 121 -48 23 -68 27 -142 27 -155 0 -242 -64 -242 -179 0 -97 57
-136 260 -179 246 -53 319 -86 363 -169 31 -58 32 -210 1 -276 -47 -102 -150
-163 -302 -180 -179 -20 -323 17 -395 101 -35 40 -57 96 -57 143 0 25 3 26 50
26 47 0 50 -2 69 -38 46 -90 112 -122 255 -122 133 0 199 25 249 92 29 38 35
134 12 177 -22 44 -70 63 -280 116 -100 25 -195 55 -225 71 -86 47 -124 118
-123 234 1 148 97 257 256 290 54 11 231 6 279 -9z m1770 -244 c151 -74 227
-258 199 -478 -17 -130 -43 -193 -110 -260 -77 -76 -143 -102 -271 -103 -71
-1 -108 4 -145 18 -106 40 -176 109 -219 214 -25 61 -34 251 -16 331 33 146
127 253 263 297 27 9 78 13 142 11 86 -2 108 -6 157 -30z m868 1 c66 -29 121
-89 146 -157 22 -61 30 -274 14 -369 -23 -136 -100 -246 -205 -293 -64 -28
-176 -35 -254 -15 -36 9 -66 18 -68 20 -7 7 -13 126 -6 126 4 0 16 -8 27 -19
49 -44 170 -55 242 -22 50 23 103 84 128 147 24 63 35 311 16 368 -27 84 -103
135 -201 136 -105 0 -184 -46 -232 -135 -21 -39 -22 -52 -27 -515 l-5 -475
-60 0 -60 0 0 610 0 610 58 3 59 3 -4 -60 c-1 -34 -2 -61 0 -61 2 0 14 13 28
29 58 70 149 102 269 97 57 -3 96 -11 135 -28z m-4017 -9 c20 -17 37 -37 37
-44 0 -22 -160 -143 -209 -159 -38 -12 -191 -16 -827 -21 -430 -3 -798 -3
-817 0 -33 6 -38 12 -57 61 -11 30 -20 59 -20 64 0 6 301 10 819 10 l819 0 88
59 c49 33 98 60 109 60 11 1 37 -13 58 -30z m-1436 -401 c40 -12 79 -56 94
-108 26 -85 -34 -184 -126 -210 -185 -52 -299 188 -144 303 48 35 98 39 176
15z m963 15 c47 -9 117 -79 125 -125 11 -56 -2 -104 -38 -145 -63 -71 -150
-91 -227 -50 -100 53 -120 199 -39 274 53 49 103 62 179 46z"/>
<path d="M557 8834 c-4 -4 -7 -14 -7 -23 0 -11 3 -12 11 -4 6 6 10 16 7 23 -2
6 -7 8 -11 4z"/>
<path d="M160 8420 c0 -6 7 -10 15 -10 8 0 15 2 15 4 0 2 -7 6 -15 10 -8 3
-15 1 -15 -4z"/>
<path d="M170 8390 c0 -5 6 -10 14 -10 8 0 18 5 21 10 3 6 -3 10 -14 10 -12 0
-21 -4 -21 -10z"/>
<path d="M7663 5969 c-61 -14 -127 -77 -155 -147 -19 -49 -22 -76 -23 -188 0
-130 0 -131 35 -199 30 -59 42 -73 85 -94 38 -20 64 -26 111 -25 111 1 195 74
225 197 19 78 17 261 -4 323 -17 49 -60 100 -103 123 -32 16 -123 21 -171 10z"/>
<path d="M4176 6107 c-16 -45 -55 -155 -87 -245 -33 -90 -59 -168 -59 -173 0
-5 74 -9 175 -9 96 0 175 2 175 4 0 2 -27 82 -61 177 -34 96 -73 209 -87 251
l-27 78 -29 -83z"/>
<path d="M2770 5651 c-63 -4 -120 -10 -126 -13 -14 -9 -100 -618 -91 -642 7
-17 17 -18 132 -14 69 3 127 7 130 10 10 9 135 650 129 659 -3 5 -17 8 -32 7
-15 -1 -79 -4 -142 -7z"/>
<path d="M2295 5631 l-110 -6 -7 -60 c-11 -101 -29 -551 -22 -569 5 -13 24
-16 119 -16 63 0 116 4 119 9 4 5 19 101 36 213 16 111 36 250 45 307 9 57 14
110 11 118 -3 8 -19 12 -43 11 -21 -1 -87 -4 -148 -7z"/>
<path d="M1823 5613 c-99 -4 -103 -5 -103 -26 0 -25 27 -414 36 -530 6 -70 9
-78 30 -83 27 -7 210 -1 218 7 8 8 30 605 23 623 -5 12 -18 15 -54 14 -26 -1
-94 -4 -150 -5z"/>
<path d="M1331 5593 l-53 -4 5 -32 c3 -18 17 -115 32 -217 40 -285 54 -363 64
-373 9 -9 230 -11 239 -2 4 4 -32 470 -44 583 l-6 52 -92 -2 c-50 -1 -115 -3
-145 -5z"/>
<path d="M6819 5965 c-83 -26 -137 -96 -165 -212 l-12 -53 259 0 259 0 0 22
c0 12 -7 48 -16 80 -40 142 -174 209 -325 163z"/>
<path d="M6071 4659 c-142 -28 -222 -175 -208 -380 12 -175 108 -277 263 -279
188 -1 283 144 263 405 -9 123 -63 210 -149 243 -41 16 -122 21 -169 11z"/>
<path d="M1765 10210 c-3 -6 1 -7 9 -4 18 7 21 14 7 14 -6 0 -13 -4 -16 -10z"/>
<path d="M2035 10200 c-3 -5 1 -10 9 -10 9 0 16 5 16 10 0 6 -4 10 -9 10 -6 0
-13 -4 -16 -10z"/>
<path d="M1865 10170 c-4 -6 3 -10 14 -10 25 0 27 6 6 13 -8 4 -17 2 -20 -3z"/>
<path d="M1960 10163 l-25 -15 29 7 c19 4 32 2 37 -7 6 -8 9 -9 9 -2 0 23 -24
31 -50 17z"/>
<path d="M1947 10123 c-13 -12 -7 -23 12 -23 10 0 24 7 31 15 10 13 9 15 -12
15 -14 0 -28 -3 -31 -7z"/>
<path d="M1700 10100 c0 -5 5 -10 10 -10 6 0 10 5 10 10 0 6 -4 10 -10 10 -5
0 -10 -4 -10 -10z"/>
<path d="M1630 10020 c0 -5 5 -10 10 -10 6 0 10 5 10 10 0 6 -4 10 -10 10 -5
0 -10 -4 -10 -10z"/>
<path d="M1677 9999 c7 -7 15 -10 18 -7 3 3 -2 9 -12 12 -14 6 -15 5 -6 -5z"/>
<path d="M1760 10000 c0 -5 5 -10 11 -10 5 0 7 5 4 10 -3 6 -8 10 -11 10 -2 0
-4 -4 -4 -10z"/>
<path d="M1706 9944 c-4 -11 -1 -14 11 -12 9 2 18 9 21 16 6 18 -25 15 -32 -4z"/>
<path d="M1555 9934 c-20 -15 -12 -17 19 -5 11 4 15 10 10 13 -5 4 -18 0 -29
-8z"/>
<path d="M1828 9943 c7 -3 16 -2 19 1 4 3 -2 6 -13 5 -11 0 -14 -3 -6 -6z"/>
<path d="M1756 9921 c-4 -5 3 -7 14 -4 11 3 27 0 35 -7 9 -7 15 -8 15 -2 0 19
-54 30 -64 13z"/>
<path d="M1680 9899 c0 -5 5 -7 10 -4 6 3 10 8 10 11 0 2 -4 4 -10 4 -5 0 -10
-5 -10 -11z"/>
<path d="M1965 9900 c3 -5 13 -10 21 -10 8 0 14 5 14 10 0 6 -9 10 -21 10 -11
0 -17 -4 -14 -10z"/>
<path d="M1703 9877 c-24 -24 -29 -37 -14 -37 5 0 19 14 31 30 25 35 15 39
-17 7z"/>
<path d="M1635 9860 c3 -5 12 -7 20 -3 21 7 19 13 -6 13 -11 0 -18 -4 -14 -10z"/>
<path d="M1591 9841 c-8 -6 -9 -11 -3 -15 6 -3 14 -1 17 5 9 14 2 20 -14 10z"/>
<path d="M1515 9830 c-3 -6 1 -7 9 -4 18 7 21 14 7 14 -6 0 -13 -4 -16 -10z"/>
<path d="M1625 9816 c-16 -13 -27 -27 -24 -31 4 -3 22 8 40 24 40 37 27 41
-16 7z"/>
<path d="M1515 9779 c-11 -16 -1 -19 13 -3 7 8 8 14 3 14 -5 0 -13 -5 -16 -11z"/>
<path d="M1355 9760 c-8 -13 25 -13 45 0 12 8 9 10 -12 10 -15 0 -30 -4 -33
-10z"/>
<path d="M1270 9749 c0 -5 5 -7 10 -4 6 3 10 8 10 11 0 2 -4 4 -10 4 -5 0 -10
-5 -10 -11z"/>
<path d="M1480 9749 c0 -5 5 -7 10 -4 6 3 10 8 10 11 0 2 -4 4 -10 4 -5 0 -10
-5 -10 -11z"/>
<path d="M1547 9735 c-15 -14 -35 -25 -43 -25 -17 0 -19 -27 -2 -32 13 -5 48
26 48 42 0 5 12 16 28 24 15 8 20 15 12 15 -8 0 -28 -11 -43 -24z"/>
<path d="M1423 9728 c-13 -17 -24 -48 -17 -48 6 0 21 15 43 43 11 14 11 17 -2
17 -8 0 -19 -6 -24 -12z"/>
<path d="M1587 9708 c-10 -11 -17 -21 -15 -24 6 -6 48 26 48 37 0 14 -13 9
-33 -13z"/>
<path d="M1380 9630 c-17 -20 -31 -28 -45 -24 -16 4 -17 3 -5 -5 8 -6 18 -11
21 -11 9 0 69 56 69 64 0 14 -16 4 -40 -24z"/>
<path d="M1155 9630 c4 -6 11 -8 16 -5 14 9 11 15 -7 15 -8 0 -12 -5 -9 -10z"/>
<path d="M1425 9620 c-16 -17 -16 -20 -2 -20 8 0 24 -3 34 -6 17 -5 17 -5 0 6
-18 11 -18 12 0 26 15 11 16 13 2 14 -9 0 -24 -9 -34 -20z"/>
<path d="M1120 9610 c0 -5 5 -10 11 -10 5 0 7 5 4 10 -3 6 -8 10 -11 10 -2 0
-4 -4 -4 -10z"/>
<path d="M1498 9613 c7 -3 16 -2 19 1 4 3 -2 6 -13 5 -11 0 -14 -3 -6 -6z"/>
<path d="M1260 9590 c-14 -11 -20 -20 -14 -20 14 0 50 27 44 33 -3 3 -16 -3
-30 -13z"/>
<path d="M1085 9590 c4 -6 11 -8 16 -5 14 9 11 15 -7 15 -8 0 -12 -5 -9 -10z"/>
<path d="M1322 9553 c-23 -15 -42 -31 -42 -35 0 -10 59 19 78 39 26 25 6 23
-36 -4z"/>
<path d="M1200 9560 c0 -5 5 -10 11 -10 5 0 7 5 4 10 -3 6 -8 10 -11 10 -2 0
-4 -4 -4 -10z"/>
<path d="M1388 9545 c-14 -13 -29 -21 -32 -17 -4 3 -4 -2 0 -11 4 -12 10 -15
17 -8 5 5 16 7 25 4 10 -4 13 -2 8 5 -6 11 5 17 27 13 12 -2 8 16 -6 27 -10 8
-20 5 -39 -13z"/>
<path d="M1495 9533 c-11 -7 -25 -11 -32 -9 -21 9 -42 -4 -36 -22 5 -11 2 -14
-11 -9 -10 4 -23 -1 -33 -13 -13 -14 -21 -17 -35 -9 -11 6 -31 9 -46 7 -22 -2
-26 -7 -24 -27 4 -23 3 -23 -26 -6 -28 17 -30 17 -51 -4 -11 -11 -27 -21 -34
-21 -16 0 -57 -42 -57 -58 0 -6 -8 -16 -17 -21 -10 -6 -13 -11 -6 -11 6 0 18
6 25 13 28 27 77 57 93 57 14 0 15 3 5 15 -26 31 45 12 78 -22 18 -17 28 -17
50 5 10 10 24 16 30 14 7 -2 12 2 12 8 0 6 7 18 15 26 8 9 15 11 15 5 0 -21
18 -11 24 14 4 17 17 27 44 35 52 14 63 22 48 36 -9 8 -17 8 -31 -3z m-165
-78 c10 -11 9 -18 -3 -30 -18 -17 -37 -20 -37 -5 0 6 5 10 11 10 8 0 9 4 0 13
-10 13 -6 27 9 27 4 0 13 -7 20 -15z"/>
<path d="M1128 9526 c-16 -12 -15 -13 12 -12 16 1 29 5 27 10 -5 16 -21 16
-39 2z"/>
<path d="M1244 9521 c3 -5 -4 -11 -15 -14 -12 -3 -18 -10 -15 -16 7 -11 37 -3
48 13 8 12 1 26 -13 26 -6 0 -8 -4 -5 -9z"/>
<path d="M1085 9500 c-3 -5 1 -10 10 -10 9 0 13 5 10 10 -3 6 -8 10 -10 10 -2
0 -7 -4 -10 -10z"/>
<path d="M800 9459 c0 -5 5 -7 10 -4 6 3 10 8 10 11 0 2 -4 4 -10 4 -5 0 -10
-5 -10 -11z"/>
<path d="M915 9450 c-3 -5 1 -10 10 -10 9 0 13 5 10 10 -3 6 -8 10 -10 10 -2
0 -7 -4 -10 -10z"/>
<path d="M1047 9449 c7 -7 15 -10 18 -7 3 3 -2 9 -12 12 -14 6 -15 5 -6 -5z"/>
<path d="M1040 9409 c0 -5 5 -7 10 -4 6 3 10 8 10 11 0 2 -4 4 -10 4 -5 0 -10
-5 -10 -11z"/>
<path d="M905 9390 c-3 -5 -1 -10 4 -10 6 0 11 5 11 10 0 6 -2 10 -4 10 -3 0
-8 -4 -11 -10z"/>
<path d="M1005 9370 c-3 -5 -1 -10 4 -10 6 0 11 5 11 10 0 6 -2 10 -4 10 -3 0
-8 -4 -11 -10z"/>
<path d="M861 9361 c-9 -6 -10 -11 -2 -15 13 -8 31 1 31 15 0 11 -11 11 -29 0z"/>
<path d="M970 9330 c0 -5 7 -10 16 -10 8 0 12 5 9 10 -3 6 -10 10 -16 10 -5 0
-9 -4 -9 -10z"/>
<path d="M896 9315 c-33 -25 -12 -32 29 -8 36 20 37 23 15 23 -14 -1 -33 -7
-44 -15z"/>
<path d="M806 9305 c-11 -8 -18 -17 -15 -19 2 -3 15 4 29 14 14 11 21 20 15
19 -5 0 -19 -6 -29 -14z"/>
<path d="M932 9283 c-15 -6 -6 -23 14 -23 8 0 14 7 14 15 0 15 -6 17 -28 8z"/>
<path d="M831 9271 c-10 -7 -10 -10 -1 -16 6 -4 16 -3 22 3 13 13 -4 23 -21
13z"/>
<path d="M778 9243 c-10 -2 -18 -9 -18 -14 0 -14 16 -11 30 6 7 8 11 14 9 14
-2 -1 -12 -3 -21 -6z"/>
<path d="M876 9234 c-9 -24 -2 -26 12 -4 7 11 8 20 3 20 -5 0 -12 -7 -15 -16z"/>
<path d="M800 9220 c0 -5 5 -10 10 -10 6 0 10 5 10 10 0 6 -4 10 -10 10 -5 0
-10 -4 -10 -10z"/>
<path d="M815 9200 c-13 -5 -14 -9 -5 -9 8 0 24 4 35 9 13 5 14 9 5 9 -8 0
-24 -4 -35 -9z"/>
<path d="M664 9155 c-16 -12 -16 -14 -3 -15 9 0 22 7 29 15 16 19 0 19 -26 0z"/>
<path d="M733 9144 c-5 -13 -7 -13 -14 -2 -5 7 -9 9 -9 3 0 -30 17 -34 40 -10
20 21 21 25 6 25 -9 0 -19 -7 -23 -16z"/>
<path d="M590 9123 c-13 -15 -12 -16 4 -10 10 4 20 7 22 7 2 0 4 5 4 10 0 15
-13 12 -30 -7z"/>
<path d="M642 9106 c-24 -13 -38 -27 -33 -31 13 -7 51 12 51 25 0 6 6 10 14
10 8 0 18 5 21 10 10 16 -6 11 -53 -14z"/>
<path d="M770 9120 c-8 -5 -10 -10 -5 -10 6 0 17 5 25 10 8 5 11 10 5 10 -5 0
-17 -5 -25 -10z"/>
<path d="M685 9088 c-25 -15 -72 -58 -63 -58 9 0 98 60 98 66 0 7 -14 4 -35
-8z"/>
<path d="M775 9080 c-3 -5 1 -10 9 -10 9 0 16 5 16 10 0 6 -4 10 -9 10 -6 0
-13 -4 -16 -10z"/>
<path d="M688 9043 c7 -3 16 -2 19 1 4 3 -2 6 -13 5 -11 0 -14 -3 -6 -6z"/>
<path d="M740 9040 c0 -5 5 -10 10 -10 6 0 10 5 10 10 0 6 -4 10 -10 10 -5 0
-10 -4 -10 -10z"/>
<path d="M390 9030 c0 -5 7 -7 15 -4 8 4 15 8 15 10 0 2 -7 4 -15 4 -8 0 -15
-4 -15 -10z"/>
<path d="M560 9030 c0 -5 7 -7 15 -4 8 4 15 8 15 10 0 2 -7 4 -15 4 -8 0 -15
-4 -15 -10z"/>
<path d="M561 8985 c-37 -30 -41 -35 -21 -35 16 0 21 -4 16 -16 -6 -15 -4 -15
10 -3 10 8 12 15 5 17 -16 5 -14 22 2 22 14 0 47 31 47 43 0 14 -16 6 -59 -28z"/>
<path d="M510 9000 c0 -5 9 -10 20 -10 11 0 20 5 20 10 0 6 -9 10 -20 10 -11
0 -20 -4 -20 -10z"/>
<path d="M435 8960 c3 -5 16 -10 28 -9 21 0 21 1 2 9 -28 12 -37 12 -30 0z"/>
<path d="M748 8943 c-10 -2 -18 -9 -18 -14 0 -14 33 -10 54 6 20 15 20 15 0
14 -10 -1 -27 -3 -36 -6z"/>
<path d="M494 8925 c3 -10 -1 -15 -11 -15 -13 0 -14 -3 -5 -12 9 -9 16 -7 32
10 25 27 25 32 -1 32 -15 0 -19 -5 -15 -15z"/>
<path d="M591 8921 c-9 -6 -2 -10 23 -13 23 -2 35 0 33 6 -5 14 -38 18 -56 7z"/>
<path d="M395 8910 c-3 -5 -2 -10 4 -10 5 0 13 5 16 10 3 6 2 10 -4 10 -5 0
-13 -4 -16 -10z"/>
<path d="M350 8881 c0 -5 -10 -12 -22 -16 -20 -6 -21 -8 -5 -12 18 -5 47 12
47 28 0 5 -4 9 -10 9 -5 0 -10 -4 -10 -9z"/>
<path d="M417 8874 c7 -3 9 -12 6 -20 -3 -8 0 -14 6 -14 6 0 11 6 11 14 0 8
10 17 23 19 12 2 4 5 -18 5 -22 0 -35 -2 -28 -4z"/>
<path d="M284 8816 c4 -10 1 -25 -5 -32 -13 -16 -4 -19 14 -4 7 6 21 18 32 26
19 15 19 15 -4 8 -15 -4 -27 -1 -33 7 -7 10 -8 9 -4 -5z"/>
<path d="M190 8790 c0 -5 5 -10 10 -10 6 0 10 5 10 10 0 6 -4 10 -10 10 -5 0
-10 -4 -10 -10z"/>
<path d="M370 8790 c0 -13 20 -13 40 0 12 8 9 10 -12 10 -16 0 -28 -4 -28 -10z"/>
<path d="M227 8762 c-6 -33 -6 -33 14 -13 14 13 15 18 4 28 -10 9 -14 6 -18
-15z"/>
<path d="M88 8713 c6 -2 18 -2 25 0 6 3 1 5 -13 5 -14 0 -19 -2 -12 -5z"/>
<path d="M295 8700 c3 -5 10 -10 16 -10 5 0 9 5 9 10 0 6 -7 10 -16 10 -8 0
-12 -4 -9 -10z"/>
<path d="M144 8679 c-5 -9 21 -19 48 -19 11 0 18 5 16 13 -5 13 -56 18 -64 6z"/>
<path d="M10 8660 c-13 -8 -13 -10 2 -10 9 0 20 5 23 10 8 13 -5 13 -25 0z"/>
<path d="M220 8650 c0 -5 5 -10 10 -10 6 0 10 5 10 10 0 6 -4 10 -10 10 -5 0
-10 -4 -10 -10z"/>
<path d="M90 8640 c19 -4 27 -8 16 -9 -28 -2 -86 -40 -86 -57 0 -8 -4 -14 -10
-14 -5 0 -10 -7 -10 -15 0 -12 3 -12 20 2 11 10 20 23 20 30 0 8 12 18 26 23
33 13 34 13 28 -5 -4 -10 0 -15 10 -15 9 0 16 6 14 14 -2 7 8 23 22 34 l25 21
-55 -1 c-50 -1 -52 -1 -20 -8z"/>
<path d="M207 8563 c-15 -2 -25 -9 -22 -14 9 -14 45 -11 61 6 16 16 16 16 -39
8z"/>
<path d="M100 8540 c-11 -11 -20 -25 -20 -30 0 -6 -16 -10 -36 -8 -23 2 -39
-2 -41 -9 -7 -20 58 -16 90 6 15 10 35 28 43 40 14 19 13 21 0 21 -9 0 -25 -9
-36 -20z"/>
<path d="M45 8539 c-10 -15 1 -23 20 -15 9 3 13 10 10 16 -8 13 -22 13 -30 -1z"/>
<path d="M0 8440 c0 -5 5 -10 10 -10 6 0 10 5 10 10 0 6 -4 10 -10 10 -5 0
-10 -4 -10 -10z"/>
</g>
</svg>
