<?xml version="1.0" standalone="no"?>
<!DOCTYPE svg PUBLIC "-//W3C//DTD SVG 20010904//EN"
 "http://www.w3.org/TR/2001/REC-SVG-20010904/DTD/svg10.dtd">
<svg version="1.0" xmlns="http://www.w3.org/2000/svg"
 width="1024.000000pt" height="1024.000000pt" viewBox="0 0 1024.000000 1024.000000"
 preserveAspectRatio="xMidYMid meet">

<g transform="translate(0.000000,1024.000000) scale(0.100000,-0.100000)"
fill="#000000" stroke="none">
<path d="M0 5120 l0 -5120 5120 0 5120 0 0 5120 0 5120 -5120 0 -5120 0 0
-5120z m2632 1438 c14 -11 18 -45 22 -228 3 -118 5 -244 5 -279 l1 -64 60 57
c33 31 85 69 117 84 50 23 71 27 148 27 109 0 163 -22 213 -87 59 -77 60 -87
63 -646 1 -280 -1 -514 -5 -520 -5 -8 -51 -12 -146 -12 -137 0 -140 0 -145 23
-3 12 -6 222 -7 467 -2 340 -6 450 -16 468 -37 65 -118 72 -214 20 l-63 -35
-5 -459 c-3 -252 -9 -465 -13 -471 -9 -14 -249 -19 -281 -7 -14 6 -16 87 -16
818 1 839 0 833 40 849 30 11 226 7 242 -5z m5262 -24 c3 -9 6 -334 6 -722 l0
-707 35 -44 c19 -24 35 -50 35 -57 0 -15 -75 -74 -157 -123 -42 -26 -56 -30
-72 -22 -21 12 -83 92 -101 132 l-12 26 -49 -53 c-70 -73 -130 -98 -239 -98
-73 -1 -94 3 -148 28 -108 50 -179 149 -225 316 -18 64 -21 104 -21 280 -1
244 12 317 80 457 73 149 164 213 304 213 112 0 189 -43 253 -140 16 -23 17
-10 17 231 0 214 2 258 16 277 14 21 22 22 143 22 108 0 130 -3 135 -16z m396
-50 c23 -23 -53 -317 -116 -450 -26 -56 -60 -86 -69 -62 -9 25 -25 502 -18
509 17 17 187 19 203 3z m645 -330 c33 -8 85 -32 115 -52 66 -44 131 -134 133
-183 l2 -34 -90 -32 c-49 -17 -98 -32 -107 -32 -11 -1 -26 15 -38 38 -32 63
-81 94 -155 99 -103 7 -175 -48 -175 -133 0 -83 50 -119 258 -185 232 -74 316
-152 343 -322 20 -123 -24 -255 -111 -338 -144 -137 -413 -170 -601 -74 -67
34 -157 125 -188 192 -21 45 -22 53 -10 68 16 19 149 84 173 84 8 0 28 -20 45
-43 66 -96 148 -136 252 -124 70 9 104 30 129 81 18 39 20 50 10 86 -15 56
-66 90 -199 135 -289 96 -377 178 -389 361 -9 151 40 265 149 344 110 79 292
105 454 64z m-7056 -12 c106 -41 160 -95 191 -187 11 -30 14 -126 16 -390 1
-343 2 -351 24 -398 13 -27 38 -60 56 -75 19 -15 34 -34 34 -43 0 -15 -148
-129 -199 -152 -22 -11 -29 -6 -95 66 l-72 77 -51 -48 c-58 -55 -133 -95 -218
-117 -152 -39 -323 7 -395 106 -49 69 -63 126 -58 252 3 101 7 119 35 179 79
168 268 262 526 262 l117 0 0 96 c0 85 -3 101 -23 131 -32 47 -70 64 -147 64
-89 0 -145 -31 -180 -99 l-25 -48 -107 6 c-59 3 -114 9 -123 12 -42 17 33 177
111 237 99 75 189 97 384 93 119 -2 155 -7 199 -24z m3546 -6 c64 -29 101 -67
134 -136 l26 -55 3 -515 3 -515 -22 -17 c-17 -15 -41 -18 -128 -18 -65 0 -116
5 -131 13 l-25 13 -5 456 c-5 443 -6 457 -26 485 -51 68 -150 64 -230 -9 l-44
-41 0 -442 c0 -399 -2 -444 -17 -456 -24 -21 -260 -20 -273 1 -6 9 -10 192
-10 445 0 261 -4 444 -10 467 -17 60 -40 80 -98 86 -65 6 -101 -9 -147 -59
l-35 -39 0 -444 c0 -390 -2 -445 -16 -457 -20 -16 -219 -25 -256 -10 l-27 10
-3 465 c-3 453 -4 465 -24 493 -52 70 -151 66 -231 -10 l-44 -42 -2 -448 c-2
-385 -4 -449 -17 -457 -23 -15 -263 -13 -278 2 -9 9 -12 158 -12 610 0 691
-10 631 105 643 74 8 151 1 171 -16 10 -8 14 -36 14 -90 0 -44 4 -79 8 -79 4
0 16 15 26 33 32 56 79 98 141 128 50 24 73 29 135 29 41 0 91 -5 111 -10 51
-14 123 -81 145 -135 11 -25 21 -45 24 -45 3 0 13 12 22 28 27 45 90 102 143
130 39 20 69 27 138 30 141 7 216 -32 267 -140 l27 -58 28 40 c36 52 94 104
144 130 83 42 211 45 296 6z m1020 19 c137 -36 225 -110 286 -240 42 -90 60
-168 66 -291 5 -88 3 -113 -8 -120 -8 -5 -167 -11 -354 -14 l-340 -5 4 -60 c8
-143 73 -255 167 -291 92 -35 236 0 333 81 40 35 63 29 120 -28 53 -55 51 -65
-30 -152 -111 -119 -219 -167 -379 -168 -165 -2 -280 42 -374 144 -99 107
-148 270 -148 499 0 424 183 657 517 659 45 1 107 -6 140 -14z m-4121 -1399
c495 -284 1084 -484 1651 -560 313 -42 729 -47 1020 -12 385 46 763 137 1084
263 178 70 198 75 216 57 8 -9 15 -21 15 -28 0 -45 -292 -246 -500 -343 -602
-283 -1272 -353 -1995 -208 -440 88 -885 277 -1295 550 -137 91 -355 264 -355
281 0 11 36 64 43 64 2 0 54 -29 116 -64z m4309 5 c22 -9 27 -17 27 -45 0 -59
-49 -227 -95 -325 -97 -204 -275 -396 -302 -326 -3 9 22 84 55 168 69 174 105
289 100 320 -6 43 -61 52 -293 49 -115 -1 -230 -3 -255 -4 -40 -3 -45 -1 -48
20 -3 18 5 26 40 41 99 42 260 84 413 107 101 15 315 12 358 -5z"/>
<path d="M7349 5900 c-68 -71 -94 -206 -87 -445 6 -174 24 -257 74 -322 46
-61 142 -62 185 -2 69 98 99 429 57 634 -14 68 -56 143 -90 161 -15 8 -44 14
-64 14 -30 0 -44 -7 -75 -40z"/>
<path d="M1631 5500 c-101 -21 -180 -84 -201 -160 -16 -55 -12 -141 8 -179 26
-51 61 -73 119 -73 86 0 176 64 202 145 14 42 31 249 21 260 -11 12 -101 17
-149 7z"/>
<path d="M6231 5953 c-58 -29 -114 -139 -127 -249 l-7 -57 108 6 c59 4 150 7
202 7 l94 0 -6 48 c-17 127 -62 219 -122 251 -31 16 -103 13 -142 -6z"/>
</g>
</svg>
