<?xml version="1.0" standalone="no"?>
<!DOCTYPE svg PUBLIC "-//W3C//DTD SVG 20010904//EN"
 "http://www.w3.org/TR/2001/REC-SVG-20010904/DTD/svg10.dtd">
<svg version="1.0" xmlns="http://www.w3.org/2000/svg"
 width="1024.000000pt" height="1024.000000pt" viewBox="0 0 1024.000000 1024.000000"
 preserveAspectRatio="xMidYMid meet">

<g transform="translate(0.000000,1024.000000) scale(0.100000,-0.100000)"
fill="#000000" stroke="none">
<path d="M0 5120 l0 -5120 5120 0 5120 0 0 5120 0 5120 -5120 0 -5120 0 0
-5120z m4399 1574 c48 -62 24 -177 -114 -535 -118 -303 -205 -540 -205 -555 0
-7 20 -20 44 -29 54 -21 89 -54 76 -74 -7 -12 -17 -11 -65 7 -31 12 -63 22
-70 22 -14 0 -68 -152 -118 -335 -87 -313 -97 -555 -23 -555 36 0 47 -19 29
-46 -26 -40 -79 -26 -140 38 -60 62 -77 118 -81 261 -6 181 16 297 125 658 5
18 -35 28 -234 59 l-111 17 -35 -46 c-19 -25 -120 -161 -224 -302 -195 -262
-216 -288 -268 -320 -39 -24 -106 -25 -136 -1 l-22 19 46 11 c66 17 102 53
239 241 67 91 159 217 205 279 46 61 83 114 83 117 0 11 -110 4 -158 -10 -60
-18 -117 -63 -126 -100 -8 -32 -22 -32 -30 0 -9 35 24 107 62 133 43 31 134
52 228 52 l82 0 113 153 c339 453 545 710 645 799 81 73 147 88 183 42z m3552
-107 c19 -12 35 -32 37 -44 2 -12 -56 -143 -129 -294 -309 -641 -419 -939
-419 -1129 0 -56 2 -60 23 -60 39 0 106 81 289 351 47 69 102 156 123 193 20
37 39 65 42 63 11 -12 -196 -373 -280 -487 -82 -113 -153 -170 -210 -170 -67
0 -115 100 -103 214 8 71 46 229 80 330 14 39 23 72 22 73 -1 2 -31 -34 -66
-78 -118 -150 -217 -220 -320 -227 -64 -4 -114 21 -130 64 -22 56 -4 165 42
259 15 32 -8 11 -113 -98 -203 -213 -278 -263 -377 -255 -84 7 -138 59 -150
142 l-7 48 -59 -83 c-233 -328 -440 -576 -495 -594 -12 -3 -42 -57 -85 -148
-36 -79 -66 -146 -66 -150 0 -4 57 55 126 132 141 157 209 211 266 211 72 0
109 -87 76 -181 -6 -19 -37 -79 -69 -134 -144 -255 -230 -465 -189 -465 18 0
95 77 141 141 111 155 204 277 239 314 20 22 55 74 76 115 51 98 119 170 161
170 22 0 35 7 47 25 19 29 52 32 99 10 81 -38 129 -192 96 -308 -6 -22 -8 -41
-5 -45 11 -11 107 -4 175 13 l69 17 62 126 c35 70 75 159 91 197 22 56 32 71
51 73 30 4 92 -37 96 -64 1 -10 -23 -71 -55 -134 -31 -63 -61 -123 -65 -134
-5 -10 30 21 77 68 91 93 145 125 208 126 49 0 100 -22 121 -51 20 -30 21
-112 1 -169 -8 -24 -14 -45 -11 -47 7 -7 160 29 245 57 47 16 87 27 90 25 14
-15 -221 -99 -308 -111 -48 -6 -51 -9 -104 -83 -174 -243 -427 -367 -427 -209
0 54 19 94 74 154 59 67 126 109 201 129 70 18 79 28 105 113 23 74 24 92 8
127 -24 53 -88 24 -185 -85 -132 -147 -178 -222 -291 -471 -108 -237 -169
-384 -212 -509 -34 -97 -39 -107 -76 -128 -24 -14 -52 -21 -74 -20 -62 5 -55
33 78 345 66 153 158 361 204 463 47 102 81 186 77 188 -4 2 -31 -4 -60 -12
-29 -9 -81 -16 -116 -16 l-63 0 -30 -59 c-57 -114 -178 -219 -271 -236 -48 -9
-113 10 -151 44 -29 26 -33 35 -36 99 -3 49 1 86 12 119 19 56 22 60 -94 -97
-188 -253 -234 -300 -293 -300 -14 0 -38 11 -53 23 -23 20 -28 34 -32 84 -3
39 2 81 13 119 22 76 103 246 194 404 39 69 71 131 71 138 0 28 -81 -33 -194
-147 -148 -149 -183 -193 -239 -299 -26 -48 -60 -100 -77 -116 -32 -31 -46
-80 -36 -121 7 -29 6 -29 -28 -13 -44 19 -58 53 -58 131 1 66 5 79 59 183 32
62 55 116 51 119 -3 4 -61 -8 -128 -26 -99 -26 -120 -35 -115 -48 11 -29 6
-176 -9 -223 -58 -192 -248 -308 -506 -308 -184 0 -300 66 -300 171 0 148 140
228 608 349 33 9 42 15 42 33 0 37 -57 146 -130 247 -88 122 -110 170 -110
240 0 100 69 199 164 235 l46 18 0 72 c0 71 2 77 81 236 45 90 99 205 120 254
37 88 39 90 70 88 39 -2 83 -33 87 -61 2 -11 -22 -76 -52 -144 -64 -140 -73
-145 103 55 147 168 222 204 287 136 43 -45 40 -114 -9 -232 -20 -48 -37 -88
-37 -90 0 -1 53 49 117 112 129 124 221 191 263 191 15 0 38 -9 51 -19 23 -18
24 -25 25 -153 2 -158 3 -155 -130 -393 -157 -282 -197 -357 -193 -361 18 -18
149 140 361 434 114 160 147 214 187 307 79 189 155 280 257 312 78 24 187 0
212 -46 55 -103 -87 -260 -250 -278 -33 -3 -64 -11 -69 -17 -5 -6 -21 -48 -35
-94 -25 -79 -34 -171 -20 -206 14 -36 104 -10 179 51 67 55 422 414 445 451
30 48 108 108 162 124 79 24 237 -21 275 -78 l17 -26 24 48 c29 57 231 489
287 617 44 98 56 104 116 64z m-3056 -38 c120 -33 114 -116 -23 -337 -74 -120
-160 -229 -236 -299 -37 -35 -70 -63 -75 -63 -4 0 -24 -35 -44 -77 -50 -109
-107 -243 -102 -243 2 0 65 69 139 154 180 205 237 245 305 216 36 -14 51 -48
51 -111 0 -43 -11 -71 -82 -207 -45 -86 -104 -202 -131 -257 -47 -96 -85 -211
-73 -222 13 -13 57 19 103 75 26 32 95 121 153 198 108 142 205 254 221 254
20 0 5 -24 -68 -113 -43 -51 -134 -164 -202 -250 -68 -87 -139 -166 -156 -177
-47 -29 -99 -26 -124 6 -28 36 -28 132 0 217 20 62 152 337 229 477 34 61 38
76 25 78 -50 11 -356 -319 -421 -454 -19 -39 -47 -88 -64 -108 -35 -45 -54
-97 -48 -137 3 -16 2 -29 -1 -29 -16 0 -71 42 -82 62 -22 41 -13 141 19 205
16 32 76 171 132 308 90 216 340 736 394 818 16 24 25 27 70 27 28 0 69 -5 91
-11z m3224 -84 c33 -16 81 -70 81 -90 0 -26 -53 -132 -106 -212 -46 -69 -102
-123 -128 -123 -14 0 -3 49 43 198 27 86 52 176 56 200 7 46 13 49 54 27z
m538 -460 c14 -16 23 -39 23 -59 0 -48 -28 -129 -57 -162 l-24 -29 4 30 c3 17
11 55 18 85 7 31 9 68 5 83 -6 24 -11 27 -45 27 -74 0 -170 -101 -171 -178 0
-42 11 -63 78 -141 29 -35 65 -82 78 -103 l25 -38 87 67 c158 122 215 163 226
163 13 -1 -4 -15 -173 -149 l-132 -104 8 -41 c4 -23 8 -72 8 -111 0 -97 -37
-163 -123 -222 -103 -69 -208 -78 -268 -22 -30 28 -32 90 -5 136 21 34 104
106 194 167 31 22 57 43 57 48 0 25 -33 80 -85 143 -64 77 -94 135 -95 179 -1
135 158 274 300 262 33 -3 50 -11 67 -31z m-6980 -130 c70 -9 134 -20 145 -26
34 -18 47 -54 78 -223 17 -94 33 -173 35 -177 7 -10 50 -15 376 -49 401 -41
638 -68 649 -75 5 -3 -44 -109 -108 -235 -95 -187 -122 -232 -144 -241 -20 -8
-98 -8 -305 0 -153 6 -299 11 -324 11 l-45 0 17 -105 c9 -58 19 -108 22 -111
3 -3 99 -14 214 -25 561 -50 573 -52 573 -88 0 -36 -22 -42 -116 -32 -106 12
-627 61 -648 61 -26 0 -7 -71 30 -112 59 -66 54 -149 -12 -208 -43 -38 -115
-44 -162 -14 -88 57 -79 189 17 242 40 23 41 25 35 60 -4 21 -7 38 -8 39 -1 1
-48 7 -104 13 -128 14 -134 16 -130 49 l3 26 108 -2 109 -1 -7 46 c-3 26 -12
74 -18 107 -11 53 -15 60 -37 63 -56 6 -99 23 -115 48 -19 29 -105 414 -105
470 0 54 30 77 96 72 44 -2 53 0 49 12 -2 8 -16 80 -31 160 -14 80 -30 148
-36 151 -5 4 -58 12 -116 19 -119 14 -150 23 -158 45 -7 18 13 45 33 45 8 0
71 -7 140 -15z m950 -1455 c43 -26 66 -63 66 -108 0 -80 -61 -142 -138 -142
-114 0 -172 142 -93 228 43 46 111 55 165 22z"/>
<path d="M4247 6583 c-31 -32 -84 -92 -118 -133 -100 -120 -572 -754 -562
-757 9 -2 277 -42 306 -46 15 -2 25 15 48 73 62 158 117 284 237 545 112 244
162 357 162 370 0 16 -25 -2 -73 -52z"/>
<path d="M6695 5911 c-44 -26 -107 -101 -143 -169 -18 -33 -32 -63 -32 -66 0
-3 23 3 51 13 95 36 183 129 196 205 5 33 4 36 -18 36 -13 0 -38 -8 -54 -19z"/>
<path d="M7320 5882 c-54 -34 -103 -92 -175 -207 -60 -96 -111 -211 -121 -273
-6 -40 -5 -42 19 -42 41 0 138 73 243 183 113 117 226 271 222 300 -4 30 -50
59 -99 64 -36 4 -52 -1 -89 -25z"/>
<path d="M5567 5829 c-49 -32 -133 -122 -235 -252 -59 -75 -202 -305 -202
-325 0 -5 25 -13 54 -17 61 -7 114 -37 134 -75 17 -33 11 -125 -12 -173 -19
-38 -92 -105 -103 -93 -3 3 8 36 25 73 47 104 47 164 0 193 -121 73 -329 -78
-289 -210 6 -20 45 -79 87 -131 87 -108 147 -205 165 -267 9 -31 16 -41 28
-38 68 21 218 56 237 56 14 0 27 7 31 18 3 9 35 87 70 172 74 178 111 250 310
598 80 139 153 274 163 300 23 61 33 133 21 151 -29 45 -189 -97 -420 -371
-80 -96 -139 -158 -150 -158 -22 0 -62 41 -63 66 -1 21 29 84 145 304 104 200
106 247 4 179z"/>
<path d="M6553 4789 l27 -21 -25 -30 c-18 -21 -25 -41 -25 -71 0 -45 27 -114
53 -135 14 -12 17 -9 26 25 39 148 16 254 -57 253 l-27 -1 28 -20z"/>
<path d="M6418 4587 c-91 -141 -131 -249 -126 -334 2 -40 7 -49 24 -51 51 -7
180 117 241 233 l27 53 -36 40 c-40 45 -68 92 -68 117 0 29 -15 15 -62 -58z"/>
<path d="M7229 4446 c-86 -30 -174 -110 -209 -188 -45 -102 14 -103 122 0 58
55 122 133 147 180 10 19 9 22 -6 22 -10 -1 -34 -7 -54 -14z"/>
<path d="M4935 4410 c-143 -44 -226 -77 -309 -124 -169 -95 -211 -217 -97
-284 41 -24 55 -27 141 -27 88 0 100 3 158 33 154 80 237 216 230 375 l-3 65
-120 -38z"/>
<path d="M4901 6496 c-12 -7 -31 -26 -42 -42 -30 -43 -251 -485 -246 -491 10
-10 123 118 182 207 68 101 141 245 151 296 7 37 -10 48 -45 30z"/>
<path d="M8423 5382 c-59 -47 -148 -144 -169 -184 -8 -16 -14 -41 -12 -56 2
-22 9 -28 35 -30 73 -7 170 76 197 169 18 58 21 125 7 133 -5 4 -31 -11 -58
-32z"/>
<path d="M1780 5371 c0 -12 90 -414 93 -418 9 -8 67 -14 67 -7 0 5 -16 101
-35 213 -19 112 -35 208 -35 212 0 5 -20 9 -45 9 -25 0 -45 -4 -45 -9z"/>
</g>
</svg>
