<?xml version="1.0" standalone="no"?>
<!DOCTYPE svg PUBLIC "-//W3C//DTD SVG 20010904//EN"
 "http://www.w3.org/TR/2001/REC-SVG-20010904/DTD/svg10.dtd">
<svg version="1.0" xmlns="http://www.w3.org/2000/svg"
 width="1014.000000pt" height="391.000000pt" viewBox="0 0 1014.000000 391.000000"
 preserveAspectRatio="xMidYMid meet">

<g transform="translate(0.000000,391.000000) scale(0.100000,-0.100000)"
fill="#000000" stroke="none">
<path d="M0 3354 l0 -557 68 7 c37 3 348 17 692 31 1121 45 1594 66 1640 73
l44 7 28 120 c45 196 45 197 144 244 94 45 443 186 486 196 24 6 29 3 43 -31
23 -56 30 -110 14 -119 -7 -5 -118 -52 -248 -105 -192 -80 -236 -102 -244
-121 -13 -35 -106 -437 -202 -876 -102 -463 -110 -495 -130 -509 -9 -7 -77
-15 -158 -18 -243 -11 -1359 -36 -1622 -36 -280 0 -286 1 -305 68 -13 46 -47
257 -100 605 -22 148 -42 273 -45 277 -3 5 -19 11 -35 15 -37 8 -41 15 -56 95
-9 52 -12 -222 -13 -1327 l-1 -1393 5070 0 5070 0 0 1955 0 1955 -5070 0
-5070 0 0 -556z m4756 -244 c4 0 22 14 41 30 77 68 195 106 297 97 79 -8 127
-28 180 -78 69 -63 70 -73 71 -554 l0 -420 -65 0 -65 0 -5 405 c-5 443 -5 443
-65 480 -25 16 -50 20 -111 20 -91 0 -141 -19 -193 -71 -76 -76 -90 -161 -91
-559 0 -135 -4 -250 -8 -256 -4 -6 -35 -14 -69 -18 l-63 -7 0 208 c0 114 -3
447 -7 740 l-6 532 74 3 74 3 3 -277 c1 -153 5 -278 8 -278z m4021 536 c11
-10 16 -1258 6 -1366 l-8 -85 -67 -3 -67 -3 -3 52 -3 52 -50 -43 c-84 -73
-121 -85 -265 -85 -156 0 -199 16 -288 109 -108 112 -137 199 -136 411 0 211
43 337 147 431 158 141 391 161 545 44 l52 -40 0 254 c0 140 3 262 6 271 6 14
17 16 65 13 32 -2 62 -8 66 -12z m434 -2 c111 -57 61 -318 -87 -454 -49 -45
-127 -86 -132 -69 -2 5 21 47 52 92 105 157 142 267 91 275 -67 10 -65 7 -65
86 0 40 3 76 7 79 12 13 104 7 134 -9z m-5203 -29 c9 -8 512 -1397 512 -1414
0 -19 -6 -21 -63 -21 -35 0 -70 6 -79 13 -9 6 -46 93 -81 192 l-65 180 -153 6
c-85 4 -213 7 -285 8 l-131 1 -56 -142 c-31 -79 -65 -165 -75 -193 -16 -40
-25 -51 -48 -56 -48 -11 -154 -10 -154 1 0 6 52 144 116 308 64 163 187 481
274 706 87 225 164 413 172 418 11 7 107 2 116 -7z m2015 -407 c26 -12 61 -37
77 -56 l28 -35 62 42 c156 103 343 108 453 10 77 -67 79 -77 84 -566 l5 -423
-65 0 -65 0 -6 93 c-3 50 -8 234 -10 407 -3 173 -9 328 -14 345 -19 68 -154
96 -265 55 -77 -29 -117 -80 -130 -165 -4 -22 -7 -192 -7 -378 l-1 -338 -25
-9 c-42 -16 -91 -12 -99 8 -4 9 -11 177 -16 372 -4 195 -10 374 -13 398 -12
91 -60 132 -154 132 -122 0 -231 -86 -247 -194 -3 -22 -9 -194 -13 -381 l-7
-340 -67 -3 -68 -3 0 134 c0 74 -3 310 -7 525 l-6 392 66 0 67 0 0 -55 0 -55
61 45 c33 25 77 49 97 54 21 5 46 12 57 15 41 10 180 -6 228 -26z m1469 12
c102 -29 228 -153 262 -258 21 -62 36 -170 36 -258 l0 -72 -396 -7 -396 -8 5
-49 c8 -67 51 -158 95 -201 64 -62 121 -82 242 -82 125 0 147 9 231 97 l56 59
42 -49 c22 -28 41 -57 41 -65 0 -21 -83 -90 -152 -127 -77 -41 -154 -53 -283
-42 -133 11 -205 44 -289 132 -97 102 -141 226 -140 400 2 280 118 459 349
537 46 15 236 11 297 -7z m2390 -8 c96 -42 177 -143 193 -239 l7 -43 -66 0
-66 0 -24 53 c-26 59 -68 99 -122 117 -56 19 -221 9 -261 -15 -46 -27 -66 -75
-61 -141 7 -85 58 -127 193 -158 39 -9 109 -25 157 -36 93 -21 171 -55 200
-87 27 -29 48 -88 54 -152 14 -134 -59 -260 -184 -319 -54 -26 -65 -27 -207
-27 -141 0 -153 2 -205 26 -109 52 -184 141 -196 233 -8 57 0 66 67 66 46 0
47 -1 63 -44 19 -51 79 -116 128 -142 41 -22 195 -31 255 -15 84 23 142 101
143 191 0 85 -44 117 -211 153 -175 38 -222 54 -280 95 -108 75 -142 176 -105
306 27 92 122 173 229 196 73 16 247 5 299 -18z m-4892 -1498 l0 -266 40 35
c188 171 557 150 636 -35 16 -39 18 -85 22 -469 l4 -426 -32 -7 c-48 -9 -98
-7 -105 4 -3 5 -9 189 -13 407 -9 439 -9 441 -72 477 -29 18 -52 21 -140 21
-119 0 -162 -15 -233 -84 -84 -79 -93 -125 -103 -538 l-7 -293 -68 0 -69 0 0
720 0 720 70 0 70 0 0 -266z m-588 138 c96 -48 186 -172 196 -273 l4 -46 -62
-6 c-34 -4 -66 -4 -71 -2 -5 3 -13 23 -19 44 -17 65 -50 104 -119 139 -60 30
-71 32 -166 32 -119 0 -185 -17 -238 -61 -52 -43 -70 -83 -71 -154 -2 -128 47
-160 366 -239 319 -79 399 -127 427 -256 39 -181 -16 -351 -138 -429 -171
-110 -502 -123 -667 -26 -87 51 -161 168 -152 242 3 27 6 28 60 31 l57 3 27
-43 c60 -98 111 -131 225 -149 82 -13 204 -5 278 17 108 32 167 120 159 238
-7 114 -35 131 -368 221 -294 80 -354 112 -401 217 -20 44 -24 69 -24 153 0
89 3 107 29 162 32 69 89 129 158 164 86 44 115 49 293 46 155 -2 174 -4 217
-25z m2173 -291 c168 -83 258 -255 257 -491 0 -198 -45 -333 -143 -431 -94
-94 -191 -129 -353 -129 -147 0 -250 44 -343 144 -98 106 -123 188 -123 406 0
188 38 297 140 400 109 111 193 142 377 137 114 -4 127 -6 188 -36z m1070 8
c68 -25 149 -97 181 -162 35 -67 46 -145 46 -322 0 -173 -16 -256 -64 -348
-48 -89 -109 -151 -186 -189 -66 -33 -69 -33 -202 -32 -96 0 -147 5 -175 16
l-40 15 -3 78 -3 78 23 -17 c57 -42 92 -51 189 -51 89 0 99 2 145 30 57 36
118 112 139 175 20 61 38 279 30 369 -8 97 -28 143 -81 190 -56 49 -112 65
-212 59 -62 -4 -89 -11 -132 -34 -63 -34 -125 -107 -141 -167 -7 -27 -14 -242
-19 -617 -5 -316 -9 -576 -9 -577 -1 -2 -35 -3 -76 -3 l-75 0 0 759 0 759 23
6 c12 3 46 6 76 6 l54 0 -7 -70 c-4 -38 -4 -70 0 -70 4 0 29 21 56 46 54 50
116 81 187 94 70 13 215 2 276 -21z m-5037 7 c41 -21 84 -70 77 -88 -11 -29
-184 -158 -250 -187 -41 -18 -596 -30 -1423 -31 l-653 0 -23 23 c-25 25 -62
124 -51 135 4 4 464 8 1023 10 l1017 3 90 59 c92 60 144 89 158 90 4 0 20 -6
35 -14z m-520 -523 c45 -21 110 -98 118 -140 22 -120 -54 -232 -179 -264 -92
-23 -199 28 -238 115 -71 157 52 329 221 309 25 -2 60 -12 78 -20z m-1221 -14
c32 -16 52 -35 73 -73 122 -212 -163 -433 -336 -260 -107 106 -76 280 61 346
50 24 138 18 202 -13z"/>
<path d="M8270 3101 c-76 -23 -155 -97 -193 -179 -19 -41 -22 -69 -25 -214 -4
-188 3 -225 61 -313 46 -72 114 -105 217 -105 123 0 198 47 255 159 36 73 48
153 44 313 -4 132 -6 147 -32 200 -36 73 -94 124 -159 137 -56 12 -131 13
-168 2z"/>
<path d="M3836 3065 c-60 -168 -105 -309 -102 -313 4 -4 102 -8 217 -10 155
-2 209 0 209 9 0 12 -197 584 -209 607 -4 7 -56 -125 -115 -293z"/>
<path d="M7210 3095 c-59 -18 -119 -70 -152 -131 -29 -53 -70 -189 -60 -198 3
-3 149 -6 324 -6 l318 0 0 28 c0 35 -23 118 -44 164 -25 53 -82 107 -140 134
-60 28 -171 32 -246 9z"/>
<path d="M6269 1464 c-47 -9 -132 -68 -167 -116 -51 -72 -74 -148 -80 -265
-11 -239 65 -380 232 -428 69 -20 168 -16 229 10 126 53 197 201 197 410 -1
181 -61 309 -174 367 -41 21 -174 33 -237 22z"/>
<path d="M2096 2699 c-49 -4 -93 -12 -98 -17 -19 -19 -105 -592 -110 -737 l-3
-70 157 0 c86 0 160 3 164 7 13 13 164 763 164 813 0 12 -17 15 -92 14 -51 -1
-133 -5 -182 -10z"/>
<path d="M1562 2679 c-74 -4 -135 -9 -138 -12 -15 -15 -51 -747 -38 -780 5
-15 25 -17 149 -17 131 0 144 2 150 18 6 22 63 385 96 620 20 141 21 165 8
173 -15 10 -32 10 -227 -2z"/>
<path d="M895 2651 l-50 -6 3 -95 c1 -52 12 -223 23 -380 15 -221 23 -288 35
-300 12 -12 41 -15 146 -13 73 2 135 6 139 10 17 17 40 756 25 781 -8 13 -222
15 -321 3z"/>
<path d="M368 2633 c-43 -2 -78 -8 -78 -13 0 -20 101 -687 109 -724 5 -21 16
-43 23 -47 7 -5 75 -9 151 -9 l137 0 0 48 c0 67 -45 637 -56 715 l-6 37 -101
-2 c-56 -1 -137 -4 -179 -5z"/>
</g>
</svg>
